<svg width="24" height="24" viewBox="0 0 24 24" fill="none" xmlns="http://www.w3.org/2000/svg">
<g opacity="0.3">
<path d="M6.5 12H10.5" stroke="white" stroke-width="2" stroke-linecap="round" stroke-linejoin="round"/>
<path fill-rule="evenodd" clip-rule="evenodd" d="M13.7929 8.70711L13.0858 8L14.5 6.58579L15.2071 7.29289L19.2071 11.2929L19.9142 12L19.2071 12.7071L15.2071 16.7071L14.5 17.4142L13.0858 16L13.7929 15.2929L16.0858 13L13 13L13 18C13 19.1046 13.8954 20 15 20L19 20C20.1046 20 21 19.1046 21 18L21 6C21 4.89543 20.1046 4 19 4L15 4C13.8954 4 13 4.89543 13 6L13 11L16.0858 11L13.7929 8.70711Z" fill="white"/>
</g>
</svg>
