<svg width="92" height="49" viewBox="0 0 92 49" fill="none" xmlns="http://www.w3.org/2000/svg">
<path d="M20.414 18.238H23.15V31H20.414V25.51H14.564V31H11.846V18.238H14.564V23.026H20.414V18.238ZM29.1922 21.82C29.8282 21.82 30.4282 21.946 30.9922 22.198C31.5562 22.438 32.0482 22.774 32.4682 23.206C32.8882 23.626 33.2182 24.124 33.4582 24.7C33.7102 25.264 33.8362 25.87 33.8362 26.518C33.8362 27.166 33.7102 27.778 33.4582 28.354C33.2182 28.918 32.8882 29.416 32.4682 29.848C32.0482 30.268 31.5562 30.604 30.9922 30.856C30.4282 31.096 29.8282 31.216 29.1922 31.216C28.5442 31.216 27.9382 31.096 27.3742 30.856C26.8102 30.604 26.3182 30.268 25.8982 29.848C25.4782 29.416 25.1422 28.918 24.8902 28.354C24.6502 27.778 24.5302 27.166 24.5302 26.518C24.5302 25.87 24.6502 25.264 24.8902 24.7C25.1422 24.124 25.4782 23.626 25.8982 23.206C26.3182 22.774 26.8102 22.438 27.3742 22.198C27.9382 21.946 28.5442 21.82 29.1922 21.82ZM29.1922 29.038C29.4922 29.038 29.7682 28.978 30.0202 28.858C30.2842 28.738 30.5122 28.576 30.7042 28.372C30.9082 28.156 31.0642 27.904 31.1722 27.616C31.2922 27.316 31.3522 26.986 31.3522 26.626C31.3522 26.266 31.2922 25.93 31.1722 25.618C31.0642 25.306 30.9082 25.036 30.7042 24.808C30.5122 24.568 30.2842 24.382 30.0202 24.25C29.7682 24.106 29.4922 24.034 29.1922 24.034C28.8922 24.034 28.6102 24.106 28.3462 24.25C28.0822 24.382 27.8482 24.568 27.6442 24.808C27.4522 25.036 27.2962 25.306 27.1762 25.618C27.0682 25.93 27.0142 26.266 27.0142 26.626C27.0142 26.986 27.0682 27.316 27.1762 27.616C27.2962 27.904 27.4522 28.156 27.6442 28.372C27.8482 28.576 28.0822 28.738 28.3462 28.858C28.6102 28.978 28.8922 29.038 29.1922 29.038ZM38.4302 27.796C38.4302 28.216 38.5562 28.54 38.8082 28.768C39.0722 28.996 39.4142 29.11 39.8342 29.11C40.1702 29.11 40.5062 29.044 40.8422 28.912V31C40.5422 31.096 40.2242 31.174 39.8882 31.234C39.5522 31.306 39.2162 31.342 38.8802 31.342C38.4962 31.342 38.1302 31.294 37.7822 31.198C37.4342 31.102 37.1222 30.94 36.8462 30.712C36.5702 30.472 36.3482 30.16 36.1802 29.776C36.0242 29.38 35.9462 28.894 35.9462 28.318V24.286H34.6682V22.612L35.9462 22.072V20.074H38.4302V22.072H40.8422V24.286H38.4302V27.796ZM46.4368 21.82C47.1088 21.82 47.7208 21.958 48.2728 22.234C48.8248 22.498 49.2988 22.852 49.6948 23.296C50.0908 23.728 50.3968 24.232 50.6128 24.808C50.8288 25.372 50.9368 25.954 50.9368 26.554C50.9368 26.914 50.8888 27.298 50.7928 27.706H44.4208C44.6608 28.114 45.0028 28.462 45.4468 28.75C45.8908 29.026 46.3708 29.164 46.8868 29.164C47.4028 29.164 47.8528 29.122 48.2368 29.038C48.6328 28.954 49.0048 28.846 49.3528 28.714L50.1808 30.244C49.7368 30.556 49.2268 30.796 48.6508 30.964C48.0868 31.132 47.4808 31.216 46.8328 31.216C46.1248 31.216 45.4648 31.096 44.8528 30.856C44.2408 30.604 43.7068 30.268 43.2508 29.848C42.7948 29.428 42.4348 28.93 42.1708 28.354C41.9068 27.778 41.7748 27.166 41.7748 26.518C41.7748 25.882 41.8948 25.282 42.1348 24.718C42.3748 24.142 42.7048 23.644 43.1248 23.224C43.5568 22.792 44.0548 22.45 44.6188 22.198C45.1828 21.946 45.7888 21.82 46.4368 21.82ZM48.4708 25.78C48.3268 25.264 48.0688 24.844 47.6968 24.52C47.3248 24.196 46.9048 24.034 46.4368 24.034C45.9568 24.034 45.5188 24.196 45.1228 24.52C44.7388 24.844 44.4748 25.264 44.3308 25.78H48.4708ZM52.8039 17.842H55.2879V31H52.8039V17.842ZM58.232 28.408C58.616 28.408 58.94 28.54 59.204 28.804C59.48 29.068 59.618 29.392 59.618 29.776C59.618 30.16 59.48 30.484 59.204 30.748C58.94 31.012 58.616 31.144 58.232 31.144C57.848 31.144 57.524 31.012 57.26 30.748C56.996 30.484 56.864 30.16 56.864 29.776C56.864 29.392 56.996 29.068 57.26 28.804C57.524 28.54 57.848 28.408 58.232 28.408ZM69.1764 18.238L74.5044 31H71.5524L70.4004 28.264H64.9824L63.8484 31H60.8784L66.2064 18.238H69.1764ZM69.3744 25.78L67.7004 21.766L66.0264 25.78H69.3744ZM78.1545 23.314C78.2745 23.122 78.4125 22.942 78.5685 22.774C78.7245 22.594 78.9105 22.438 79.1265 22.306C79.3425 22.162 79.5885 22.048 79.8645 21.964C80.1405 21.88 80.4525 21.838 80.8005 21.838C81.2085 21.838 81.6825 21.91 82.2225 22.054L81.9885 24.268C81.8565 24.244 81.7245 24.214 81.5925 24.178C81.4845 24.154 81.3645 24.136 81.2325 24.124C81.1005 24.1 80.9805 24.088 80.8725 24.088C80.4885 24.088 80.1285 24.142 79.7925 24.25C79.4685 24.358 79.1865 24.508 78.9465 24.7C78.7065 24.892 78.5145 25.126 78.3705 25.402C78.2265 25.666 78.1545 25.954 78.1545 26.266V31H75.6705V22.072H77.9205L78.1545 23.314ZM87.5165 24.034C87.2165 24.034 86.9345 24.106 86.6705 24.25C86.4065 24.382 86.1725 24.568 85.9685 24.808C85.7765 25.036 85.6205 25.306 85.5005 25.618C85.3925 25.93 85.3385 26.266 85.3385 26.626C85.3385 26.986 85.3925 27.316 85.5005 27.616C85.6205 27.904 85.7765 28.156 85.9685 28.372C86.1725 28.576 86.4065 28.738 86.6705 28.858C86.9345 28.978 87.2165 29.038 87.5165 29.038C87.8885 29.038 88.2485 28.954 88.5965 28.786C88.9565 28.606 89.2625 28.36 89.5145 28.048L91.0445 29.56C90.6245 30.064 90.1085 30.466 89.4965 30.766C88.8845 31.066 88.2245 31.216 87.5165 31.216C86.8685 31.216 86.2625 31.096 85.6985 30.856C85.1345 30.604 84.6425 30.268 84.2225 29.848C83.8025 29.416 83.4665 28.918 83.2145 28.354C82.9745 27.778 82.8545 27.166 82.8545 26.518C82.8545 25.87 82.9745 25.264 83.2145 24.7C83.4665 24.124 83.8025 23.626 84.2225 23.206C84.6425 22.774 85.1345 22.438 85.6985 22.198C86.2625 21.946 86.8685 21.82 87.5165 21.82C88.2485 21.82 88.9265 21.976 89.5505 22.288C90.1745 22.6 90.7025 23.026 91.1345 23.566L89.4065 24.898C89.0585 24.574 88.7405 24.352 88.4525 24.232C88.1765 24.1 87.8645 24.034 87.5165 24.034Z" fill="white"/>
<path fill-rule="evenodd" clip-rule="evenodd" d="M6 2H44.5619C46.32 2 47.8721 3.14801 48.3867 4.82914L51.1941 14H53.2857L50.2991 4.24371C49.5271 1.72201 47.1991 0 44.5619 0H6C2.68629 0 0 2.68629 0 6V43C0 46.3137 2.68629 49 6 49H55.8884C59.9217 49 62.8062 45.1003 61.6256 41.2437L59.102 33H57.0104L59.7132 41.8291C60.5003 44.4002 58.5772 47 55.8884 47H6C3.79086 47 2 45.2091 2 43V6C2 3.79086 3.79086 2 6 2Z" fill="#FF6A28"/>
</svg>
