<svg width="983" height="785" viewBox="0 0 983 785" fill="none" xmlns="http://www.w3.org/2000/svg">
<mask id="path-1-inside-1_3_10" fill="white">
<path d="M255.169 784.657C252.329 784.657 249.466 784.601 246.591 784.455C244.868 784.365 242.634 784.32 240.062 784.264C227.259 783.982 208.009 783.578 201.119 777.966C195.416 773.322 192.192 762.774 189.073 752.585C187.176 746.378 185.384 740.519 183.184 736.471C181.776 733.873 180.484 731.23 179.204 728.599C174.024 718.073 169.136 708.132 157.998 703.859C154.376 702.698 150.603 702.036 146.79 701.891C142.356 701.498 137.77 701.081 133.464 699.26C130.981 698.01 128.793 696.275 127.039 694.166C124.933 691.917 122.745 689.667 119.474 688.43C114.724 686.721 109.74 685.691 104.682 685.372C97.198 684.629 90.1334 683.932 81.4044 674.97C73.3971 666.761 68.0084 655.628 63.2715 645.799C62.1077 643.348 60.9438 640.975 59.7799 638.703C58.6161 636.432 57.4522 634.115 56.4047 631.956C50.7717 620.43 45.93 610.477 34.9432 602.234C31.9171 599.985 29.0075 597.894 26.191 595.903C17.6715 589.887 9.6176 584.208 2.00597 574.706C-20.1074 547.065 -28.8596 499.789 -31.0127 485.957C-32.0718 479.131 -32.4792 472.047 -32.8749 465.187C-33.3754 456.494 -33.8991 447.52 -35.7496 439.075C-36.7738 434.386 -38.0773 430.079 -39.3576 425.941C-42.3254 416.27 -45.1187 407.138 -43.5475 395.229C-40.9986 375.899 -26.462 365.935 -12.4142 356.309C-2.61456 349.562 7.52266 342.635 14.0403 332.458C31.021 305.795 39.715 279.897 47.862 253.493L48.3974 251.738C56.5444 225.12 65.8553 194.96 59.8614 166.498C57.2194 154.072 46.3141 145.694 35.7695 137.598C23.9098 128.489 11.6776 119.088 11.0375 103.861C5.14839 102.253 -2.32359 101.5 -9.57443 100.769C-23.1567 99.397 -34.8884 98.205 -36.9484 91.6939C-38.4731 86.8921 -34.3181 80.8083 -23.4709 71.9807C-11.1689 61.9723 -0.193726 49.1189 10.3392 36.6927C18.3582 27.2691 26.6332 17.5755 35.6415 8.83787C40.0525 4.57587 44.7312 -0.158432 49.6078 -5.10641C65.7622 -21.5134 84.0697 -40.1021 101.737 -49.8181C128.342 -64.5494 156.525 -76.4419 185.791 -85.286C194.547 -87.7839 203.64 -89.0007 212.769 -88.8958C218.344 -88.901 223.912 -88.4988 229.424 -87.6925C240.981 -85.9945 246.882 -81.8899 253.644 -77.1444C257.2 -74.5682 260.924 -72.2168 264.794 -70.1048L265.958 -69.4863L265.771 -68.193C264.966 -63.5087 263.76 -58.8972 262.163 -54.4062C260.289 -49.2822 258.993 -43.9772 258.299 -38.5839L256.402 -22.1769C260.767 -13.7991 269.868 -4.36421 279.959 -3.05975C288.211 -1.9352 293.657 -5.66868 299.512 -9.61581C303.911 -12.5396 308.473 -15.5646 314.293 -16.6892C316.164 -17.0393 318.066 -17.22 319.972 -17.2289C339.758 -17.2289 345.857 3.88991 351.234 22.5235C353.561 30.5415 355.738 38.1096 358.787 43.5411C361.572 48.7332 364.082 54.0591 366.305 59.4983C369.343 66.5942 372.206 73.2852 376.152 78.9641C382.367 87.9604 394.832 94.5839 405.83 100.454C409.252 102.287 412.534 104.03 415.467 105.762C419.424 108.101 423.882 110.26 428.2 112.397C436.859 116.625 445.82 120.999 452.245 127.241C454.986 130.126 457.23 133.417 458.891 136.99C460.718 140.431 462.382 143.67 465.396 146.403C468.038 148.832 471.437 149.889 475.022 151.013C478.606 152.138 482.005 153.262 485.182 155.59C496.262 163.957 507.807 182.422 511.253 193.757C512.347 197.94 513.033 202.213 513.301 206.521C514.197 215.865 515.128 225.525 523.473 230.766C528.128 233.656 534.856 234.139 542.095 234.69C550.044 235.286 559.064 235.961 566.71 240.111L570.586 242.225C585.332 250.321 592.583 254.178 610.32 252.615C640.29 250.114 670.456 250.869 700.252 254.864C729.464 259.025 751.066 270.068 774.832 292.986C788.402 306.076 793.791 308.505 810.911 313.228C822.841 316.489 831.128 321.381 839.903 326.565C842.731 328.241 845.722 329.939 848.842 331.727C853.031 334.054 857.443 336 861.644 337.878C871.071 342.039 880.824 346.334 888.099 354.746C891.118 358.333 893.79 362.18 896.083 366.239C900.924 374.358 903.52 378.699 917.661 378.08C922.935 377.755 928.171 377.003 933.314 375.831C938.329 374.641 943.458 373.963 948.619 373.807C955.157 373.832 961.575 375.502 967.241 378.654C976.552 383.545 981.393 388.572 982.674 394.453C983.907 400.132 981.661 406.306 975.621 413.863C958.593 435.229 930.021 448.544 904.823 460.295C901.541 461.825 898.341 463.32 895.256 464.793C890.252 467.189 885.177 469.809 879.8 472.586C859.363 483.146 836.19 495.077 812.541 495.077C811.249 495.077 809.945 495.077 808.642 494.976C798.644 494.414 788.193 492.502 778.102 490.658C765.521 488.409 752.497 485.98 739.695 485.98C731.637 485.921 723.618 487.059 715.917 489.353C710.994 490.826 707.212 492.221 703.871 493.447C698.471 495.426 694.56 496.82 690.359 496.82C684.726 496.82 679 494.391 667.687 487.206C656.374 480.02 648.332 478.648 639.51 478.648C634.377 478.648 628.732 479.187 622.192 479.772L620.318 479.952C605.304 481.38 594.399 484.709 580.595 488.948L577.918 489.758C573.791 490.863 569.602 491.742 565.372 492.39C554.129 494.391 538.743 497.124 534.518 503.511C529.863 510.517 530.177 538.293 532.435 547.301C535.438 559.221 542.339 570.444 552.93 580.666C571.552 598.659 590.546 602.988 612.567 608.071C619.55 609.668 626.731 611.332 634.296 613.502C648.262 617.528 674.321 625.018 676.509 643.28C678.697 661.543 654.524 677.331 641.593 685.911L640.72 686.485C621.982 698.855 600.358 705.67 579.431 712.237C565.384 716.645 550.847 721.233 537.358 727.418C523.298 733.907 508.727 739.113 494.644 744.163C476.395 750.696 457.529 757.455 440.222 766.889C418.679 778.618 397.299 780.204 379.236 780.204C370.135 780.204 361.045 779.732 351.42 779.248L343.855 778.866C327.281 778.079 311.092 779.9 295.415 781.666C282.333 783.139 268.821 784.657 255.169 784.657ZM212.769 -85.1398C204.039 -85.2446 195.341 -84.0847 186.966 -81.6987C157.955 -72.9281 130.017 -61.1335 103.646 -46.5232C86.4789 -37.077 68.3809 -18.7021 52.436 -2.47499C47.5594 2.48423 42.8574 7.25227 38.4697 11.5255C29.6127 20.0833 21.3842 29.7543 13.4234 39.1217C2.7392 51.6716 -8.30583 64.66 -20.8755 74.882C-32.8167 84.6093 -33.678 88.9163 -33.1542 90.6256C-31.8391 94.7526 -19.7466 95.9671 -9.08561 97.0467C-1.0899 97.8564 7.20841 98.6885 13.6329 100.679L14.9946 101.106V102.512C14.9132 116.715 26.2608 125.43 38.2718 134.663C49.3634 143.175 60.8274 151.992 63.7487 165.745C69.9986 195.14 60.5481 225.784 52.2032 252.829L51.6678 254.572C43.451 281.224 34.6522 307.425 17.3922 334.414C10.409 345.255 0.0041275 352.407 -10.1214 359.357C-24.0878 368.949 -37.3092 378.001 -39.6486 395.69C-41.115 406.812 -38.5545 415.179 -35.5867 424.861C-34.2832 429.089 -32.9564 433.452 -31.8856 438.288C-29.9885 447.014 -29.4531 456.134 -28.9411 464.962C-28.557 471.709 -28.1496 478.738 -27.1138 485.384C-21.4807 521.695 -9.43477 554.228 5.12511 572.389C12.4109 581.476 19.8828 586.75 28.5303 592.856C31.3818 594.869 34.3496 596.949 37.3873 599.254C49.0259 608.048 54.1236 618.372 59.9662 630.337C61.0485 632.53 62.1426 634.779 63.3181 637.084C64.4936 639.389 65.6458 641.785 66.8096 644.259C71.4651 653.828 76.6675 664.669 84.2675 672.372C92.0421 680.323 97.8265 680.896 105.147 681.627C110.557 681.977 115.885 683.087 120.964 684.922C125.061 686.474 127.668 689.206 129.972 691.669C131.374 693.382 133.115 694.807 135.093 695.864C138.818 697.438 142.903 697.809 147.221 698.191C151.317 698.563 155.554 698.934 159.488 700.44C172.057 705.254 177.26 715.847 182.765 727.058C184.022 729.611 185.29 732.22 186.687 734.773C189.015 739.136 190.889 745.175 192.844 751.562C195.672 760.783 198.861 771.219 203.668 775.177C209.487 779.934 228.726 780.35 240.19 780.598C242.808 780.654 245.09 780.699 246.835 780.789C263.223 781.598 279.354 779.788 294.996 778.022C310.824 776.246 327.2 774.379 344.076 775.2L351.664 775.582C361.231 776.066 370.286 776.538 379.271 776.538C396.834 776.538 417.585 775.009 438.348 763.696C455.923 754.126 474.94 747.323 493.317 740.733C507.284 735.717 521.809 730.522 535.728 724.112C549.439 717.792 564.092 713.193 578.268 708.751C598.926 702.273 620.283 695.571 638.555 683.482L639.44 682.898C651.73 674.767 674.623 659.642 672.726 643.809C670.829 627.975 646.353 620.924 633.283 617.112C625.823 614.964 618.677 613.323 611.763 611.726C589.161 606.519 569.655 602.021 550.277 583.32C539.173 572.614 531.923 560.829 528.757 548.189C526.615 539.699 525.673 510.079 531.329 501.487C536.462 493.728 552.151 490.939 564.767 488.701C568.833 488.069 572.862 487.228 576.836 486.182L579.525 485.361C593.491 481.088 604.617 477.714 620.027 476.241L621.901 476.061C628.546 475.42 634.272 474.869 639.603 474.869C650.869 474.869 659.645 477.534 669.863 484.045C688.089 495.628 690.347 494.357 702.533 489.882C705.768 488.701 709.772 487.228 714.812 485.71C722.899 483.34 731.314 482.18 739.765 482.269C752.986 482.269 766.173 484.675 778.929 487.003C789.403 488.915 799.226 490.714 808.968 491.265C832.862 492.615 856.942 480.188 878.066 469.28C883.478 466.491 888.541 463.849 893.638 461.409C896.734 459.924 899.947 458.428 903.229 456.91C928.042 445.339 956.173 432.17 972.653 411.569C977.937 404.934 979.95 399.75 978.973 395.229C977.995 390.709 973.549 386.233 965.472 381.949C960.362 379.095 954.568 377.583 948.666 377.563C943.772 377.729 938.908 378.38 934.152 379.508C928.797 380.715 923.347 381.487 917.858 381.814C901.32 382.477 897.584 376.191 892.742 368.083C890.564 364.216 888.024 360.55 885.154 357.13C878.438 349.348 869.512 345.412 860.061 341.24C855.72 339.329 851.227 337.349 846.886 334.932C843.674 333.155 840.706 331.412 837.843 329.725C828.94 324.451 821.246 319.908 809.829 316.793C792.173 311.98 786.156 309.281 772.027 295.651C748.913 273.352 727.928 262.613 699.623 258.542C670.137 254.574 640.283 253.82 610.623 256.293C591.664 257.968 583.47 253.582 568.596 245.43L564.744 243.315C557.853 239.571 549.613 238.964 541.734 238.379C534.053 237.805 526.79 237.254 521.355 233.881C511.427 227.639 510.368 216.574 509.425 206.824C509.194 202.779 508.579 198.762 507.586 194.825C504.316 184.064 493.038 166.262 482.843 158.57C480.236 156.591 477.151 155.624 473.881 154.612C470.04 153.409 466.06 152.16 462.778 149.147C459.286 145.964 457.377 142.276 455.492 138.711C454.001 135.492 451.994 132.52 449.545 129.906C443.562 124.092 434.892 119.852 426.5 115.759C422.113 113.611 417.585 111.396 413.488 109.012C410.614 107.314 407.378 105.582 404.015 103.794C392.62 97.7102 379.725 90.8167 372.974 81.1007C368.819 75.1182 365.735 67.9324 362.767 60.9827C360.6 55.6644 358.149 50.4583 355.423 45.3854C352.153 39.5715 349.918 31.8009 347.544 23.5806C342.295 5.38554 336.872 -13.428 320.03 -13.428C318.37 -13.4191 316.714 -13.261 315.084 -12.9557C310.079 -12.0223 306.076 -9.32343 301.839 -6.4671C295.694 -2.31756 289.258 2.01192 279.54 0.729942C267.762 -0.821922 257.601 -11.3026 252.771 -20.9849L252.527 -21.4797L254.528 -38.9325C255.23 -44.5891 256.569 -50.1548 258.521 -55.5307C259.886 -59.4287 260.979 -63.4111 261.791 -67.4508C258.212 -69.4762 254.753 -71.695 251.433 -74.0969C245.043 -78.595 239.526 -82.4185 228.9 -83.9816C223.56 -84.7533 218.169 -85.1405 212.769 -85.1398Z"/>
</mask>
<path d="M255.169 784.657C252.329 784.657 249.466 784.601 246.591 784.455C244.868 784.365 242.634 784.32 240.062 784.264C227.259 783.982 208.009 783.578 201.119 777.966C195.416 773.322 192.192 762.774 189.073 752.585C187.176 746.378 185.384 740.519 183.184 736.471C181.776 733.873 180.484 731.23 179.204 728.599C174.024 718.073 169.136 708.132 157.998 703.859C154.376 702.698 150.603 702.036 146.79 701.891C142.356 701.498 137.77 701.081 133.464 699.26C130.981 698.01 128.793 696.275 127.039 694.166C124.933 691.917 122.745 689.667 119.474 688.43C114.724 686.721 109.74 685.691 104.682 685.372C97.198 684.629 90.1334 683.932 81.4044 674.97C73.3971 666.761 68.0084 655.628 63.2715 645.799C62.1077 643.348 60.9438 640.975 59.7799 638.703C58.6161 636.432 57.4522 634.115 56.4047 631.956C50.7717 620.43 45.93 610.477 34.9432 602.234C31.9171 599.985 29.0075 597.894 26.191 595.903C17.6715 589.887 9.6176 584.208 2.00597 574.706C-20.1074 547.065 -28.8596 499.789 -31.0127 485.957C-32.0718 479.131 -32.4792 472.047 -32.8749 465.187C-33.3754 456.494 -33.8991 447.52 -35.7496 439.075C-36.7738 434.386 -38.0773 430.079 -39.3576 425.941C-42.3254 416.27 -45.1187 407.138 -43.5475 395.229C-40.9986 375.899 -26.462 365.935 -12.4142 356.309C-2.61456 349.562 7.52266 342.635 14.0403 332.458C31.021 305.795 39.715 279.897 47.862 253.493L48.3974 251.738C56.5444 225.12 65.8553 194.96 59.8614 166.498C57.2194 154.072 46.3141 145.694 35.7695 137.598C23.9098 128.489 11.6776 119.088 11.0375 103.861C5.14839 102.253 -2.32359 101.5 -9.57443 100.769C-23.1567 99.397 -34.8884 98.205 -36.9484 91.6939C-38.4731 86.8921 -34.3181 80.8083 -23.4709 71.9807C-11.1689 61.9723 -0.193726 49.1189 10.3392 36.6927C18.3582 27.2691 26.6332 17.5755 35.6415 8.83787C40.0525 4.57587 44.7312 -0.158432 49.6078 -5.10641C65.7622 -21.5134 84.0697 -40.1021 101.737 -49.8181C128.342 -64.5494 156.525 -76.4419 185.791 -85.286C194.547 -87.7839 203.64 -89.0007 212.769 -88.8958C218.344 -88.901 223.912 -88.4988 229.424 -87.6925C240.981 -85.9945 246.882 -81.8899 253.644 -77.1444C257.2 -74.5682 260.924 -72.2168 264.794 -70.1048L265.958 -69.4863L265.771 -68.193C264.966 -63.5087 263.76 -58.8972 262.163 -54.4062C260.289 -49.2822 258.993 -43.9772 258.299 -38.5839L256.402 -22.1769C260.767 -13.7991 269.868 -4.36421 279.959 -3.05975C288.211 -1.9352 293.657 -5.66868 299.512 -9.61581C303.911 -12.5396 308.473 -15.5646 314.293 -16.6892C316.164 -17.0393 318.066 -17.22 319.972 -17.2289C339.758 -17.2289 345.857 3.88991 351.234 22.5235C353.561 30.5415 355.738 38.1096 358.787 43.5411C361.572 48.7332 364.082 54.0591 366.305 59.4983C369.343 66.5942 372.206 73.2852 376.152 78.9641C382.367 87.9604 394.832 94.5839 405.83 100.454C409.252 102.287 412.534 104.03 415.467 105.762C419.424 108.101 423.882 110.26 428.2 112.397C436.859 116.625 445.82 120.999 452.245 127.241C454.986 130.126 457.23 133.417 458.891 136.99C460.718 140.431 462.382 143.67 465.396 146.403C468.038 148.832 471.437 149.889 475.022 151.013C478.606 152.138 482.005 153.262 485.182 155.59C496.262 163.957 507.807 182.422 511.253 193.757C512.347 197.94 513.033 202.213 513.301 206.521C514.197 215.865 515.128 225.525 523.473 230.766C528.128 233.656 534.856 234.139 542.095 234.69C550.044 235.286 559.064 235.961 566.71 240.111L570.586 242.225C585.332 250.321 592.583 254.178 610.32 252.615C640.29 250.114 670.456 250.869 700.252 254.864C729.464 259.025 751.066 270.068 774.832 292.986C788.402 306.076 793.791 308.505 810.911 313.228C822.841 316.489 831.128 321.381 839.903 326.565C842.731 328.241 845.722 329.939 848.842 331.727C853.031 334.054 857.443 336 861.644 337.878C871.071 342.039 880.824 346.334 888.099 354.746C891.118 358.333 893.79 362.18 896.083 366.239C900.924 374.358 903.52 378.699 917.661 378.08C922.935 377.755 928.171 377.003 933.314 375.831C938.329 374.641 943.458 373.963 948.619 373.807C955.157 373.832 961.575 375.502 967.241 378.654C976.552 383.545 981.393 388.572 982.674 394.453C983.907 400.132 981.661 406.306 975.621 413.863C958.593 435.229 930.021 448.544 904.823 460.295C901.541 461.825 898.341 463.32 895.256 464.793C890.252 467.189 885.177 469.809 879.8 472.586C859.363 483.146 836.19 495.077 812.541 495.077C811.249 495.077 809.945 495.077 808.642 494.976C798.644 494.414 788.193 492.502 778.102 490.658C765.521 488.409 752.497 485.98 739.695 485.98C731.637 485.921 723.618 487.059 715.917 489.353C710.994 490.826 707.212 492.221 703.871 493.447C698.471 495.426 694.56 496.82 690.359 496.82C684.726 496.82 679 494.391 667.687 487.206C656.374 480.02 648.332 478.648 639.51 478.648C634.377 478.648 628.732 479.187 622.192 479.772L620.318 479.952C605.304 481.38 594.399 484.709 580.595 488.948L577.918 489.758C573.791 490.863 569.602 491.742 565.372 492.39C554.129 494.391 538.743 497.124 534.518 503.511C529.863 510.517 530.177 538.293 532.435 547.301C535.438 559.221 542.339 570.444 552.93 580.666C571.552 598.659 590.546 602.988 612.567 608.071C619.55 609.668 626.731 611.332 634.296 613.502C648.262 617.528 674.321 625.018 676.509 643.28C678.697 661.543 654.524 677.331 641.593 685.911L640.72 686.485C621.982 698.855 600.358 705.67 579.431 712.237C565.384 716.645 550.847 721.233 537.358 727.418C523.298 733.907 508.727 739.113 494.644 744.163C476.395 750.696 457.529 757.455 440.222 766.889C418.679 778.618 397.299 780.204 379.236 780.204C370.135 780.204 361.045 779.732 351.42 779.248L343.855 778.866C327.281 778.079 311.092 779.9 295.415 781.666C282.333 783.139 268.821 784.657 255.169 784.657ZM212.769 -85.1398C204.039 -85.2446 195.341 -84.0847 186.966 -81.6987C157.955 -72.9281 130.017 -61.1335 103.646 -46.5232C86.4789 -37.077 68.3809 -18.7021 52.436 -2.47499C47.5594 2.48423 42.8574 7.25227 38.4697 11.5255C29.6127 20.0833 21.3842 29.7543 13.4234 39.1217C2.7392 51.6716 -8.30583 64.66 -20.8755 74.882C-32.8167 84.6093 -33.678 88.9163 -33.1542 90.6256C-31.8391 94.7526 -19.7466 95.9671 -9.08561 97.0467C-1.0899 97.8564 7.20841 98.6885 13.6329 100.679L14.9946 101.106V102.512C14.9132 116.715 26.2608 125.43 38.2718 134.663C49.3634 143.175 60.8274 151.992 63.7487 165.745C69.9986 195.14 60.5481 225.784 52.2032 252.829L51.6678 254.572C43.451 281.224 34.6522 307.425 17.3922 334.414C10.409 345.255 0.0041275 352.407 -10.1214 359.357C-24.0878 368.949 -37.3092 378.001 -39.6486 395.69C-41.115 406.812 -38.5545 415.179 -35.5867 424.861C-34.2832 429.089 -32.9564 433.452 -31.8856 438.288C-29.9885 447.014 -29.4531 456.134 -28.9411 464.962C-28.557 471.709 -28.1496 478.738 -27.1138 485.384C-21.4807 521.695 -9.43477 554.228 5.12511 572.389C12.4109 581.476 19.8828 586.75 28.5303 592.856C31.3818 594.869 34.3496 596.949 37.3873 599.254C49.0259 608.048 54.1236 618.372 59.9662 630.337C61.0485 632.53 62.1426 634.779 63.3181 637.084C64.4936 639.389 65.6458 641.785 66.8096 644.259C71.4651 653.828 76.6675 664.669 84.2675 672.372C92.0421 680.323 97.8265 680.896 105.147 681.627C110.557 681.977 115.885 683.087 120.964 684.922C125.061 686.474 127.668 689.206 129.972 691.669C131.374 693.382 133.115 694.807 135.093 695.864C138.818 697.438 142.903 697.809 147.221 698.191C151.317 698.563 155.554 698.934 159.488 700.44C172.057 705.254 177.26 715.847 182.765 727.058C184.022 729.611 185.29 732.22 186.687 734.773C189.015 739.136 190.889 745.175 192.844 751.562C195.672 760.783 198.861 771.219 203.668 775.177C209.487 779.934 228.726 780.35 240.19 780.598C242.808 780.654 245.09 780.699 246.835 780.789C263.223 781.598 279.354 779.788 294.996 778.022C310.824 776.246 327.2 774.379 344.076 775.2L351.664 775.582C361.231 776.066 370.286 776.538 379.271 776.538C396.834 776.538 417.585 775.009 438.348 763.696C455.923 754.126 474.94 747.323 493.317 740.733C507.284 735.717 521.809 730.522 535.728 724.112C549.439 717.792 564.092 713.193 578.268 708.751C598.926 702.273 620.283 695.571 638.555 683.482L639.44 682.898C651.73 674.767 674.623 659.642 672.726 643.809C670.829 627.975 646.353 620.924 633.283 617.112C625.823 614.964 618.677 613.323 611.763 611.726C589.161 606.519 569.655 602.021 550.277 583.32C539.173 572.614 531.923 560.829 528.757 548.189C526.615 539.699 525.673 510.079 531.329 501.487C536.462 493.728 552.151 490.939 564.767 488.701C568.833 488.069 572.862 487.228 576.836 486.182L579.525 485.361C593.491 481.088 604.617 477.714 620.027 476.241L621.901 476.061C628.546 475.42 634.272 474.869 639.603 474.869C650.869 474.869 659.645 477.534 669.863 484.045C688.089 495.628 690.347 494.357 702.533 489.882C705.768 488.701 709.772 487.228 714.812 485.71C722.899 483.34 731.314 482.18 739.765 482.269C752.986 482.269 766.173 484.675 778.929 487.003C789.403 488.915 799.226 490.714 808.968 491.265C832.862 492.615 856.942 480.188 878.066 469.28C883.478 466.491 888.541 463.849 893.638 461.409C896.734 459.924 899.947 458.428 903.229 456.91C928.042 445.339 956.173 432.17 972.653 411.569C977.937 404.934 979.95 399.75 978.973 395.229C977.995 390.709 973.549 386.233 965.472 381.949C960.362 379.095 954.568 377.583 948.666 377.563C943.772 377.729 938.908 378.38 934.152 379.508C928.797 380.715 923.347 381.487 917.858 381.814C901.32 382.477 897.584 376.191 892.742 368.083C890.564 364.216 888.024 360.55 885.154 357.13C878.438 349.348 869.512 345.412 860.061 341.24C855.72 339.329 851.227 337.349 846.886 334.932C843.674 333.155 840.706 331.412 837.843 329.725C828.94 324.451 821.246 319.908 809.829 316.793C792.173 311.98 786.156 309.281 772.027 295.651C748.913 273.352 727.928 262.613 699.623 258.542C670.137 254.574 640.283 253.82 610.623 256.293C591.664 257.968 583.47 253.582 568.596 245.43L564.744 243.315C557.853 239.571 549.613 238.964 541.734 238.379C534.053 237.805 526.79 237.254 521.355 233.881C511.427 227.639 510.368 216.574 509.425 206.824C509.194 202.779 508.579 198.762 507.586 194.825C504.316 184.064 493.038 166.262 482.843 158.57C480.236 156.591 477.151 155.624 473.881 154.612C470.04 153.409 466.06 152.16 462.778 149.147C459.286 145.964 457.377 142.276 455.492 138.711C454.001 135.492 451.994 132.52 449.545 129.906C443.562 124.092 434.892 119.852 426.5 115.759C422.113 113.611 417.585 111.396 413.488 109.012C410.614 107.314 407.378 105.582 404.015 103.794C392.62 97.7102 379.725 90.8167 372.974 81.1007C368.819 75.1182 365.735 67.9324 362.767 60.9827C360.6 55.6644 358.149 50.4583 355.423 45.3854C352.153 39.5715 349.918 31.8009 347.544 23.5806C342.295 5.38554 336.872 -13.428 320.03 -13.428C318.37 -13.4191 316.714 -13.261 315.084 -12.9557C310.079 -12.0223 306.076 -9.32343 301.839 -6.4671C295.694 -2.31756 289.258 2.01192 279.54 0.729942C267.762 -0.821922 257.601 -11.3026 252.771 -20.9849L252.527 -21.4797L254.528 -38.9325C255.23 -44.5891 256.569 -50.1548 258.521 -55.5307C259.886 -59.4287 260.979 -63.4111 261.791 -67.4508C258.212 -69.4762 254.753 -71.695 251.433 -74.0969C245.043 -78.595 239.526 -82.4185 228.9 -83.9816C223.56 -84.7533 218.169 -85.1405 212.769 -85.1398Z" stroke="#555555" stroke-opacity="0.5" stroke-width="10" mask="url(#path-1-inside-1_3_10)"/>
</svg>
